<?xml version="1.0" encoding="UTF-8" standalone="no"?>
<!-- Created with Inkscape (http://www.inkscape.org/) -->

<svg
   width="22.459263mm"
   height="8.9718523mm"
   viewBox="0 0 22.459263 8.9718523"
   version="1.1"
   id="svg1"
   xml:space="preserve"
   xmlns="http://www.w3.org/2000/svg"
   xmlns:svg="http://www.w3.org/2000/svg"><defs
     id="defs1" /><g
     id="layer1"
     transform="translate(-84.941173,-117.52594)"><g
       id="text1-8-3"
       style="font-size:11.2889px;line-height:9px;font-family:'Falling Sky';-inkscape-font-specification:'Falling Sky, Normal';stroke-width:0.264583"
       aria-label="IRex_"><path
         style="font-weight:bold"
         d="m 84.941171,125.05563 c 0,0.0565 0.05644,0.13547 0.146755,0.13547 h 1.309513 c 0.05644,0 0.135467,-0.0452 0.135467,-0.13547 v -7.38294 c 0,-0.0564 -0.04516,-0.13546 -0.135467,-0.13546 h -1.309513 c -0.05644,0 -0.146755,0.0452 -0.146755,0.13546 z m 4.7752,-6.18631 h 0.914401 c 0.982134,0 1.422401,0.24835 1.422401,0.99342 0,0.74507 -0.462845,1.1176 -1.422401,1.1176 h -0.914401 z m 4.052715,6.32178 c 0.259645,0 0.124178,-0.2032 0.124178,-0.2032 l -1.682046,-2.93511 c 0.835378,-0.33867 1.411112,-1.07245 1.411112,-2.19005 0,-1.74978 -1.298223,-2.3368 -2.856091,-2.3368 h -2.494847 c -0.05645,0 -0.135467,0.0564 -0.135467,0.14675 v 7.38294 c 0,0.0565 0.04515,0.13547 0.135467,0.13547 h 1.309512 c 0.05644,0 0.146756,-0.0452 0.146756,-0.13547 v -2.75449 h 0.903112 l 1.546579,2.82223 c 0.02258,0.0452 0.06773,0.0677 0.124178,0.0677 z"
         id="path4" /><path
         style="font-size:8.46667px"
         d="m 94.443608,122.9813 c 0,1.3716 0.897467,2.17593 2.048934,2.17593 0.524934,0 1.024467,-0.18626 1.422401,-0.44873 l -0.3302,-0.6096 c -0.3048,0.19473 -0.609601,0.3048 -0.965201,0.3048 -0.668867,0 -1.143,-0.42333 -1.227667,-1.17687 h 2.641601 c 0.0254,-0.1016 0.04233,-0.27093 0.04233,-0.4572 0,-1.15993 -0.592667,-1.97273 -1.718734,-1.97273 -0.973668,0 -1.913468,0.82973 -1.913468,2.1844 z m 0.9398,-0.37253 c 0.08467,-0.69427 0.508001,-1.05834 0.999068,-1.05834 0.567266,0 0.846667,0.39794 0.846667,1.05834 z"
         id="path5" /><path
         style="font-size:8.46667px"
         d="m 98.50761,125.05563 h 1.016 l 0.440267,-0.82126 c 0.118533,-0.254 0.245533,-0.49954 0.364063,-0.7366 h 0.0339 c 0.14393,0.23706 0.28787,0.49106 0.42333,0.7366 l 0.508,0.82126 h 1.04987 l -1.3208,-2.0574 1.22767,-2.09973 h -1.00754 l -0.39793,0.7874 c -0.1016,0.2286 -0.22013,0.47413 -0.32173,0.70273 h -0.0339 c -0.127,-0.2286 -0.26247,-0.47413 -0.381,-0.70273 l -0.465667,-0.7874 h -1.049867 l 1.236134,1.98967 z"
         id="path6" /><path
         style="font-weight:bold;font-size:9.87778px;fill:#5b913b"
         d="m 102.58009,125.56928 c -0.0494,0 -0.11854,0.0395 -0.11854,0.11853 v 0.68157 c 0,0.0494 0.0395,0.12841 0.11854,0.12841 h 4.70182 c 0.0494,0 0.11853,-0.0494 0.11853,-0.12841 v -0.68157 c 0,-0.0494 -0.0395,-0.11853 -0.11853,-0.11853 z"
         id="path7" /></g></g></svg>
