<?xml version="1.0" encoding="UTF-8" standalone="no"?>
<!-- Created with Inkscape (http://www.inkscape.org/) -->

<svg
   width="35.097157mm"
   height="15.172233mm"
   viewBox="0 0 35.097157 15.172233"
   version="1.1"
   id="svg1"
   xml:space="preserve"
   xmlns="http://www.w3.org/2000/svg"
   xmlns:svg="http://www.w3.org/2000/svg"><defs
     id="defs1" /><g
     id="layer1"
     transform="translate(-35.905447,-110.60708)"><g
       id="text1-4"
       style="font-size:11.2889px;line-height:6px;font-family:'Falling Sky';-inkscape-font-specification:'Falling Sky, Normal';stroke-width:0.264583"
       aria-label="IR&#10;explorer_"><path
         style="font-weight:bold"
         d="m 36.348546,118.13678 c 0,0.0564 0.05644,0.13547 0.146756,0.13547 h 1.309512 c 0.05644,0 0.135467,-0.0452 0.135467,-0.13547 v -7.38294 c 0,-0.0564 -0.04516,-0.13547 -0.135467,-0.13547 h -1.309512 c -0.05645,0 -0.146756,0.0452 -0.146756,0.13547 z m 4.7752,-6.18632 h 0.914401 c 0.982134,0 1.422402,0.24836 1.422402,0.99343 0,0.74506 -0.462845,1.1176 -1.422402,1.1176 h -0.914401 z m 4.052715,6.32179 c 0.259645,0 0.124178,-0.2032 0.124178,-0.2032 l -1.682046,-2.93512 c 0.835379,-0.33866 1.411113,-1.07244 1.411113,-2.19004 0,-1.74978 -1.298224,-2.33681 -2.856092,-2.33681 h -2.494847 c -0.05645,0 -0.135467,0.0564 -0.135467,0.14676 v 7.38294 c 0,0.0564 0.04516,0.13547 0.135467,0.13547 h 1.309512 c 0.05645,0 0.146756,-0.0452 0.146756,-0.13547 v -2.75449 h 0.903112 l 1.546579,2.82222 c 0.02258,0.0452 0.06773,0.0677 0.124178,0.0677 z"
         id="path1" /><path
         style="font-size:8.46667px"
         d="m 35.905456,122.06245 c 0,1.3716 0.897467,2.17593 2.048935,2.17593 0.524933,0 1.024467,-0.18627 1.4224,-0.44873 l -0.3302,-0.6096 c -0.3048,0.19473 -0.6096,0.3048 -0.9652,0.3048 -0.668867,0 -1.143001,-0.42334 -1.227668,-1.17687 h 2.641601 c 0.0254,-0.1016 0.04233,-0.27093 0.04233,-0.4572 0,-1.15994 -0.592667,-1.97274 -1.718734,-1.97274 -0.973667,0 -1.913468,0.82974 -1.913468,2.18441 z m 0.939801,-0.37254 c 0.08467,-0.69426 0.508,-1.05833 0.999067,-1.05833 0.567267,0 0.846667,0.39793 0.846667,1.05833 z m 3.022608,2.44687 h 1.016 l 0.440267,-0.82127 c 0.118533,-0.254 0.245534,-0.49953 0.364067,-0.7366 h 0.03387 c 0.143933,0.23707 0.287866,0.49107 0.423333,0.7366 l 0.508,0.82127 h 1.049867 l -1.3208,-2.0574 1.227667,-2.09974 h -1.007534 l -0.397933,0.7874 c -0.1016,0.22861 -0.220134,0.47414 -0.321734,0.70274 h -0.03387 c -0.127,-0.2286 -0.262467,-0.47413 -0.381001,-0.70274 l -0.465666,-0.7874 h -1.049867 l 1.236133,1.98967 z m 5.520277,-0.3556 c 0.338667,0.28787 0.702733,0.4572 1.0668,0.4572 0.922867,0 1.778001,-0.82127 1.778001,-2.24367 0,-1.28693 -0.601134,-2.11667 -1.634067,-2.11667 -0.457201,0 -0.905934,0.24554 -1.253068,0.54187 h -0.03387 l -0.06773,-0.44027 h -0.804333 v 5.79967 h 0.973667 v -1.30386 z m 0.0254,-0.69427 v -1.93886 c 0.321733,-0.31327 0.6096,-0.46567 0.9144,-0.46567 0.626534,0 0.897467,0.49107 0.897467,1.3208 0,0.9398 -0.423333,1.43087 -0.973667,1.43087 -0.245533,0 -0.5334,-0.0931 -0.8382,-0.34714 z m 3.801527,-0.0169 c 0,0.71967 0.254,1.1684 0.948267,1.1684 0.2286,0 0.397933,-0.0339 0.516467,-0.0847 l -0.127,-0.72813 c -0.0762,0.0169 -0.110067,0.0169 -0.1524,0.0169 -0.1016,0 -0.211667,-0.0847 -0.211667,-0.32173 v -4.96147 h -0.973667 z m 2.023533,-1.00753 c 0,1.38006 0.939801,2.17593 1.972735,2.17593 1.0414,0 1.9812,-0.79587 1.9812,-2.17593 0,-1.38854 -0.9398,-2.18441 -1.9812,-2.18441 -1.032934,0 -1.972735,0.79587 -1.972735,2.18441 z m 0.999068,0 c 0,-0.8382 0.364066,-1.38854 0.973667,-1.38854 0.6096,0 0.982133,0.55034 0.982133,1.38854 0,0.82973 -0.372533,1.38006 -0.982133,1.38006 -0.609601,0 -0.973667,-0.55033 -0.973667,-1.38006 z m 3.920066,2.07433 h 0.973667 v -2.54 c 0.254,-0.62653 0.651934,-0.85514 0.982134,-0.85514 0.1778,0 0.287867,0.0254 0.4318,0.0677 l 0.169333,-0.84667 c -0.127,-0.0593 -0.262466,-0.0847 -0.474133,-0.0847 -0.440267,0 -0.880534,0.29634 -1.176867,0.8382 H 57.0298 l -0.06773,-0.7366 h -0.804334 z m 2.802459,-2.07433 c 0,1.3716 0.897467,2.17593 2.048935,2.17593 0.524933,0 1.024467,-0.18627 1.4224,-0.44873 l -0.3302,-0.6096 c -0.3048,0.19473 -0.6096,0.3048 -0.9652,0.3048 -0.668867,0 -1.143001,-0.42334 -1.227668,-1.17687 h 2.641601 c 0.0254,-0.1016 0.04233,-0.27093 0.04233,-0.4572 0,-1.15994 -0.592667,-1.97274 -1.718734,-1.97274 -0.973667,0 -1.913468,0.82974 -1.913468,2.18441 z m 0.939801,-0.37254 c 0.08467,-0.69426 0.508,-1.05833 0.999067,-1.05833 0.567267,0 0.846667,0.39793 0.846667,1.05833 z m 3.623733,2.44687 h 0.973668 v -2.54 c 0.254,-0.62653 0.651933,-0.85514 0.982133,-0.85514 0.1778,0 0.287867,0.0254 0.4318,0.0677 l 0.169334,-0.84667 c -0.127,-0.0593 -0.262467,-0.0847 -0.474134,-0.0847 -0.440267,0 -0.880533,0.29634 -1.176867,0.8382 h -0.03387 l -0.06773,-0.7366 h -0.804334 z"
         id="path2" /><path
         style="font-weight:bold;font-size:9.87778px;fill:#5b913b"
         d="m 66.182258,124.65042 c -0.04939,0 -0.118533,0.0395 -0.118533,0.11854 v 0.68156 c 0,0.0494 0.03951,0.12842 0.118533,0.12842 h 4.701823 c 0.04939,0 0.118533,-0.0494 0.118533,-0.12842 v -0.68156 c 0,-0.0494 -0.03951,-0.11854 -0.118533,-0.11854 z"
         id="path3" /></g></g></svg>
